<?xml version="1.0" ?>
<xmeml version="5">
    <sequence>
        <name>Timeline 1 (Resolve)</name>
        <duration>11652</duration>
        <rate>
            <timebase>24</timebase>
            <ntsc>TRUE</ntsc>
        </rate>
        <in>-1</in>
        <out>-1</out>
        <timecode>
            <string>00:00:00:00</string>
            <frame>0</frame>
            <displayformat>NDF</displayformat>
            <rate>
                <timebase>24</timebase>
                <ntsc>TRUE</ntsc>
            </rate>
        </timecode>
        <media>
            <video>
                <track>
                    <enabled>TRUE</enabled>
                    <locked>FALSE</locked>
                    <clipitem id="spoken_video_0">
                        <name>Spoken Video 0</name>
                        <duration>2</duration>
                        <rate>
                            <timebase>24</timebase>
                            <ntsc>TRUE</ntsc>
                        </rate>
                        <start>22</start>
                        <end>25</end>
                        <enabled>TRUE</enabled>
                        <in>22</in>
                        <out>25</out>
                        <file id="file_video_0">
                            <duration>2</duration>
                            <rate>
                                <timebase>24</timebase>
                                <ntsc>TRUE</ntsc>
                            </rate>
                            <name>Spoken Video 0</name>
                            <pathurl>file:///Users/duc/Videos/20240718_C0925_copy.MP4</pathurl>
                            <timecode>
                                <string>00:00:00:00</string>
                                <displayformat>NDF</displayformat>
                                <rate>
                                    <timebase>24</timebase>
                                    <ntsc>TRUE</ntsc>
                                </rate>
                            </timecode>
                            <media>
                                <video>
                                    <samplecharacteristics>
                                        <width>1920</width>
                                        <height>1080</height>
                                    </samplecharacteristics>
                                </video>
                            </media>
                        </file>
                    </clipitem>
                    <clipitem id="spoken_video_1">
                        <name>Spoken Video 1</name>
                        <duration>0</duration>
                        <rate>
                            <timebase>24</timebase>
                            <ntsc>TRUE</ntsc>
                        </rate>
                        <start>40</start>
                        <end>40</end>
                        <enabled>TRUE</enabled>
                        <in>40</in>
                        <out>40</out>
                        <file id="file_video_1">
                            <duration>0</duration>
                            <rate>
                                <timebase>24</timebase>
                                <ntsc>TRUE</ntsc>
                            </rate>
                            <name>Spoken Video 1</name>
                            <pathurl>file:///Users/duc/Videos/20240718_C0925_copy.MP4</pathurl>
                            <timecode>
                                <string>00:00:00:00</string>
                                <displayformat>NDF</displayformat>
                                <rate>
                                    <timebase>24</timebase>
                                    <ntsc>TRUE</ntsc>
                                </rate>
                            </timecode>
                            <media>
                                <video>
                                    <samplecharacteristics>
                                        <width>1920</width>
                                        <height>1080</height>
                                    </samplecharacteristics>
                                </video>
                            </media>
                        </file>
                    </clipitem>
                    <clipitem id="spoken_video_2">
                        <name>Spoken Video 2</name>
                        <duration>20</duration>
                        <rate>
                            <timebase>24</timebase>
                            <ntsc>TRUE</ntsc>
                        </rate>
                        <start>60</start>
                        <end>80</end>
                        <enabled>TRUE</enabled>
                        <in>60</in>
                        <out>80</out>
                        <file id="file_video_2">
                            <duration>20</duration>
                            <rate>
                                <timebase>24</timebase>
                                <ntsc>TRUE</ntsc>
                            </rate>
                            <name>Spoken Video 2</name>
                            <pathurl>file:///Users/duc/Videos/20240718_C0925_copy.MP4</pathurl>
                            <timecode>
                                <string>00:00:00:00</string>
                                <displayformat>NDF</displayformat>
                                <rate>
                                    <timebase>24</timebase>
                                    <ntsc>TRUE</ntsc>
                                </rate>
                            </timecode>
                            <media>
                                <video>
                                    <samplecharacteristics>
                                        <width>1920</width>
                                        <height>1080</height>
                                    </samplecharacteristics>
                                </video>
                            </media>
                        </file>
                    </clipitem>
                    <clipitem id="spoken_video_3">
                        <name>Spoken Video 3</name>
                        <duration>194</duration>
                        <rate>
                            <timebase>24</timebase>
                            <ntsc>TRUE</ntsc>
                        </rate>
                        <start>97</start>
                        <end>291</end>
                        <enabled>TRUE</enabled>
                        <in>97</in>
                        <out>291</out>
                        <file id="file_video_3">
                            <duration>194</duration>
                            <rate>
                                <timebase>24</timebase>
                                <ntsc>TRUE</ntsc>
                            </rate>
                            <name>Spoken Video 3</name>
                            <pathurl>file:///Users/duc/Videos/20240718_C0925_copy.MP4</pathurl>
                            <timecode>
                                <string>00:00:00:00</string>
                                <displayformat>NDF</displayformat>
                                <rate>
                                    <timebase>24</timebase>
                                    <ntsc>TRUE</ntsc>
                                </rate>
                            </timecode>
                            <media>
                                <video>
                                    <samplecharacteristics>
                                        <width>1920</width>
                                        <height>1080</height>
                                    </samplecharacteristics>
                                </video>
                            </media>
                        </file>
                    </clipitem>
                    <clipitem id="spoken_video_4">
                        <name>Spoken Video 4</name>
                        <duration>68</duration>
                        <rate>
                            <timebase>24</timebase>
                            <ntsc>TRUE</ntsc>
                        </rate>
                        <start>308</start>
                        <end>376</end>
                        <enabled>TRUE</enabled>
                        <in>308</in>
                        <out>376</out>
                        <file id="file_video_4">
                            <duration>68</duration>
                            <rate>
                                <timebase>24</timebase>
                                <ntsc>TRUE</ntsc>
                            </rate>
                            <name>Spoken Video 4</name>
                            <pathurl>file:///Users/duc/Videos/20240718_C0925_copy.MP4</pathurl>
                            <timecode>
                                <string>00:00:00:00</string>
                                <displayformat>NDF</displayformat>
                                <rate>
                                    <timebase>24</timebase>
                                    <ntsc>TRUE</ntsc>
                                </rate>
                            </timecode>
                            <media>
                                <video>
                                    <samplecharacteristics>
                                        <width>1920</width>
                                        <height>1080</height>
                                    </samplecharacteristics>
                                </video>
                            </media>
                        </file>
                    </clipitem>
                    <clipitem id="spoken_video_5">
                        <name>Spoken Video 5</name>
                        <duration>84</duration>
                        <rate>
                            <timebase>24</timebase>
                            <ntsc>TRUE</ntsc>
                        </rate>
                        <start>395</start>
                        <end>480</end>
                        <enabled>TRUE</enabled>
                        <in>395</in>
                        <out>480</out>
                        <file id="file_video_5">
                            <duration>84</duration>
                            <rate>
                                <timebase>24</timebase>
                                <ntsc>TRUE</ntsc>
                            </rate>
                            <name>Spoken Video 5</name>
                            <pathurl>file:///Users/duc/Videos/20240718_C0925_copy.MP4</pathurl>
                            <timecode>
                                <string>00:00:00:00</string>
                                <displayformat>NDF</displayformat>
                                <rate>
                                    <timebase>24</timebase>
                                    <ntsc>TRUE</ntsc>
                                </rate>
                            </timecode>
                            <media>
                                <video>
                                    <samplecharacteristics>
                                        <width>1920</width>
                                        <height>1080</height>
                                    </samplecharacteristics>
                                </video>
                            </media>
                        </file>
                    </clipitem>
                    <clipitem id="spoken_video_6">
                        <name>Spoken Video 6</name>
                        <duration>144</duration>
                        <rate>
                            <timebase>24</timebase>
                            <ntsc>TRUE</ntsc>
                        </rate>
                        <start>495</start>
                        <end>640</end>
                        <enabled>TRUE</enabled>
                        <in>495</in>
                        <out>640</out>
                        <file id="file_video_6">
                            <duration>144</duration>
                            <rate>
                                <timebase>24</timebase>
                                <ntsc>TRUE</ntsc>
                            </rate>
                            <name>Spoken Video 6</name>
                            <pathurl>file:///Users/duc/Videos/20240718_C0925_copy.MP4</pathurl>
                            <timecode>
                                <string>00:00:00:00</string>
                                <displayformat>NDF</displayformat>
                                <rate>
                                    <timebase>24</timebase>
                                    <ntsc>TRUE</ntsc>
                                </rate>
                            </timecode>
                            <media>
                                <video>
                                    <samplecharacteristics>
                                        <width>1920</width>
                                        <height>1080</height>
                                    </samplecharacteristics>
                                </video>
                            </media>
                        </file>
                    </clipitem>
                    <clipitem id="spoken_video_7">
                        <name>Spoken Video 7</name>
                        <duration>128</duration>
                        <rate>
                            <timebase>24</timebase>
                            <ntsc>TRUE</ntsc>
                        </rate>
                        <start>853</start>
                        <end>981</end>
                        <enabled>TRUE</enabled>
                        <in>853</in>
                        <out>981</out>
                        <file id="file_video_7">
                            <duration>128</duration>
                            <rate>
                                <timebase>24</timebase>
                                <ntsc>TRUE</ntsc>
                            </rate>
                            <name>Spoken Video 7</name>
                            <pathurl>file:///Users/duc/Videos/20240718_C0925_copy.MP4</pathurl>
                            <timecode>
                                <string>00:00:00:00</string>
                                <displayformat>NDF</displayformat>
                                <rate>
                                    <timebase>24</timebase>
                                    <ntsc>TRUE</ntsc>
                                </rate>
                            </timecode>
                            <media>
                                <video>
                                    <samplecharacteristics>
                                        <width>1920</width>
                                        <height>1080</height>
                                    </samplecharacteristics>
                                </video>
                            </media>
                        </file>
                    </clipitem>
                    <clipitem id="spoken_video_8">
                        <name>Spoken Video 8</name>
                        <duration>548</duration>
                        <rate>
                            <timebase>24</timebase>
                            <ntsc>TRUE</ntsc>
                        </rate>
                        <start>997</start>
                        <end>1546</end>
                        <enabled>TRUE</enabled>
                        <in>997</in>
                        <out>1546</out>
                        <file id="file_video_8">
                            <duration>548</duration>
                            <rate>
                                <timebase>24</timebase>
                                <ntsc>TRUE</ntsc>
                            </rate>
                            <name>Spoken Video 8</name>
                            <pathurl>file:///Users/duc/Videos/20240718_C0925_copy.MP4</pathurl>
                            <timecode>
                                <string>00:00:00:00</string>
                                <displayformat>NDF</displayformat>
                                <rate>
                                    <timebase>24</timebase>
                                    <ntsc>TRUE</ntsc>
                                </rate>
                            </timecode>
                            <media>
                                <video>
                                    <samplecharacteristics>
                                        <width>1920</width>
                                        <height>1080</height>
                                    </samplecharacteristics>
                                </video>
                            </media>
                        </file>
                    </clipitem>
                    <clipitem id="spoken_video_9">
                        <name>Spoken Video 9</name>
                        <duration>633</duration>
                        <rate>
                            <timebase>24</timebase>
                            <ntsc>TRUE</ntsc>
                        </rate>
                        <start>1594</start>
                        <end>2227</end>
                        <enabled>TRUE</enabled>
                        <in>1594</in>
                        <out>2227</out>
                        <file id="file_video_9">
                            <duration>633</duration>
                            <rate>
                                <timebase>24</timebase>
                                <ntsc>TRUE</ntsc>
                            </rate>
                            <name>Spoken Video 9</name>
                            <pathurl>file:///Users/duc/Videos/20240718_C0925_copy.MP4</pathurl>
                            <timecode>
                                <string>00:00:00:00</string>
                                <displayformat>NDF</displayformat>
                                <rate>
                                    <timebase>24</timebase>
                                    <ntsc>TRUE</ntsc>
                                </rate>
                            </timecode>
                            <media>
                                <video>
                                    <samplecharacteristics>
                                        <width>1920</width>
                                        <height>1080</height>
                                    </samplecharacteristics>
                                </video>
                            </media>
                        </file>
                    </clipitem>
                    <clipitem id="spoken_video_10">
                        <name>Spoken Video 10</name>
                        <duration>187</duration>
                        <rate>
                            <timebase>24</timebase>
                            <ntsc>TRUE</ntsc>
                        </rate>
                        <start>2241</start>
                        <end>2428</end>
                        <enabled>TRUE</enabled>
                        <in>2241</in>
                        <out>2428</out>
                        <file id="file_video_10">
                            <duration>187</duration>
                            <rate>
                                <timebase>24</timebase>
                                <ntsc>TRUE</ntsc>
                            </rate>
                            <name>Spoken Video 10</name>
                            <pathurl>file:///Users/duc/Videos/20240718_C0925_copy.MP4</pathurl>
                            <timecode>
                                <string>00:00:00:00</string>
                                <displayformat>NDF</displayformat>
                                <rate>
                                    <timebase>24</timebase>
                                    <ntsc>TRUE</ntsc>
                                </rate>
                            </timecode>
                            <media>
                                <video>
                                    <samplecharacteristics>
                                        <width>1920</width>
                                        <height>1080</height>
                                    </samplecharacteristics>
                                </video>
                            </media>
                        </file>
                    </clipitem>
                    <clipitem id="spoken_video_11">
                        <name>Spoken Video 11</name>
                        <duration>702</duration>
                        <rate>
                            <timebase>24</timebase>
                            <ntsc>TRUE</ntsc>
                        </rate>
                        <start>2441</start>
                        <end>3144</end>
                        <enabled>TRUE</enabled>
                        <in>2441</in>
                        <out>3144</out>
                        <file id="file_video_11">
                            <duration>702</duration>
                            <rate>
                                <timebase>24</timebase>
                                <ntsc>TRUE</ntsc>
                            </rate>
                            <name>Spoken Video 11</name>
                            <pathurl>file:///Users/duc/Videos/20240718_C0925_copy.MP4</pathurl>
                            <timecode>
                                <string>00:00:00:00</string>
                                <displayformat>NDF</displayformat>
                                <rate>
                                    <timebase>24</timebase>
                                    <ntsc>TRUE</ntsc>
                                </rate>
                            </timecode>
                            <media>
                                <video>
                                    <samplecharacteristics>
                                        <width>1920</width>
                                        <height>1080</height>
                                    </samplecharacteristics>
                                </video>
                            </media>
                        </file>
                    </clipitem>
                    <clipitem id="spoken_video_12">
                        <name>Spoken Video 12</name>
                        <duration>240</duration>
                        <rate>
                            <timebase>24</timebase>
                            <ntsc>TRUE</ntsc>
                        </rate>
                        <start>3159</start>
                        <end>3400</end>
                        <enabled>TRUE</enabled>
                        <in>3159</in>
                        <out>3400</out>
                        <file id="file_video_12">
                            <duration>240</duration>
                            <rate>
                                <timebase>24</timebase>
                                <ntsc>TRUE</ntsc>
                            </rate>
                            <name>Spoken Video 12</name>
                            <pathurl>file:///Users/duc/Videos/20240718_C0925_copy.MP4</pathurl>
                            <timecode>
                                <string>00:00:00:00</string>
                                <displayformat>NDF</displayformat>
                                <rate>
                                    <timebase>24</timebase>
                                    <ntsc>TRUE</ntsc>
                                </rate>
                            </timecode>
                            <media>
                                <video>
                                    <samplecharacteristics>
                                        <width>1920</width>
                                        <height>1080</height>
                                    </samplecharacteristics>
                                </video>
                            </media>
                        </file>
                    </clipitem>
                    <clipitem id="spoken_video_13">
                        <name>Spoken Video 13</name>
                        <duration>55</duration>
                        <rate>
                            <timebase>24</timebase>
                            <ntsc>TRUE</ntsc>
                        </rate>
                        <start>3431</start>
                        <end>3486</end>
                        <enabled>TRUE</enabled>
                        <in>3431</in>
                        <out>3486</out>
                        <file id="file_video_13">
                            <duration>55</duration>
                            <rate>
                                <timebase>24</timebase>
                                <ntsc>TRUE</ntsc>
                            </rate>
                            <name>Spoken Video 13</name>
                            <pathurl>file:///Users/duc/Videos/20240718_C0925_copy.MP4</pathurl>
                            <timecode>
                                <string>00:00:00:00</string>
                                <displayformat>NDF</displayformat>
                                <rate>
                                    <timebase>24</timebase>
                                    <ntsc>TRUE</ntsc>
                                </rate>
                            </timecode>
                            <media>
                                <video>
                                    <samplecharacteristics>
                                        <width>1920</width>
                                        <height>1080</height>
                                    </samplecharacteristics>
                                </video>
                            </media>
                        </file>
                    </clipitem>
                    <clipitem id="spoken_video_14">
                        <name>Spoken Video 14</name>
                        <duration>4</duration>
                        <rate>
                            <timebase>24</timebase>
                            <ntsc>TRUE</ntsc>
                        </rate>
                        <start>3628</start>
                        <end>3632</end>
                        <enabled>TRUE</enabled>
                        <in>3628</in>
                        <out>3632</out>
                        <file id="file_video_14">
                            <duration>4</duration>
                            <rate>
                                <timebase>24</timebase>
                                <ntsc>TRUE</ntsc>
                            </rate>
                            <name>Spoken Video 14</name>
                            <pathurl>file:///Users/duc/Videos/20240718_C0925_copy.MP4</pathurl>
                            <timecode>
                                <string>00:00:00:00</string>
                                <displayformat>NDF</displayformat>
                                <rate>
                                    <timebase>24</timebase>
                                    <ntsc>TRUE</ntsc>
                                </rate>
                            </timecode>
                            <media>
                                <video>
                                    <samplecharacteristics>
                                        <width>1920</width>
                                        <height>1080</height>
                                    </samplecharacteristics>
                                </video>
                            </media>
                        </file>
                    </clipitem>
                    <clipitem id="spoken_video_15">
                        <name>Spoken Video 15</name>
                        <duration>0</duration>
                        <rate>
                            <timebase>24</timebase>
                            <ntsc>TRUE</ntsc>
                        </rate>
                        <start>3651</start>
                        <end>3651</end>
                        <enabled>TRUE</enabled>
                        <in>3651</in>
                        <out>3651</out>
                        <file id="file_video_15">
                            <duration>0</duration>
                            <rate>
                                <timebase>24</timebase>
                                <ntsc>TRUE</ntsc>
                            </rate>
                            <name>Spoken Video 15</name>
                            <pathurl>file:///Users/duc/Videos/20240718_C0925_copy.MP4</pathurl>
                            <timecode>
                                <string>00:00:00:00</string>
                                <displayformat>NDF</displayformat>
                                <rate>
                                    <timebase>24</timebase>
                                    <ntsc>TRUE</ntsc>
                                </rate>
                            </timecode>
                            <media>
                                <video>
                                    <samplecharacteristics>
                                        <width>1920</width>
                                        <height>1080</height>
                                    </samplecharacteristics>
                                </video>
                            </media>
                        </file>
                    </clipitem>
                    <clipitem id="spoken_video_16">
                        <name>Spoken Video 16</name>
                        <duration>63</duration>
                        <rate>
                            <timebase>24</timebase>
                            <ntsc>TRUE</ntsc>
                        </rate>
                        <start>3833</start>
                        <end>3897</end>
                        <enabled>TRUE</enabled>
                        <in>3833</in>
                        <out>3897</out>
                        <file id="file_video_16">
                            <duration>63</duration>
                            <rate>
                                <timebase>24</timebase>
                                <ntsc>TRUE</ntsc>
                            </rate>
                            <name>Spoken Video 16</name>
                            <pathurl>file:///Users/duc/Videos/20240718_C0925_copy.MP4</pathurl>
                            <timecode>
                                <string>00:00:00:00</string>
                                <displayformat>NDF</displayformat>
                                <rate>
                                    <timebase>24</timebase>
                                    <ntsc>TRUE</ntsc>
                                </rate>
                            </timecode>
                            <media>
                                <video>
                                    <samplecharacteristics>
                                        <width>1920</width>
                                        <height>1080</height>
                                    </samplecharacteristics>
                                </video>
                            </media>
                        </file>
                    </clipitem>
                    <clipitem id="spoken_video_17">
                        <name>Spoken Video 17</name>
                        <duration>40</duration>
                        <rate>
                            <timebase>24</timebase>
                            <ntsc>TRUE</ntsc>
                        </rate>
                        <start>3909</start>
                        <end>3950</end>
                        <enabled>TRUE</enabled>
                        <in>3909</in>
                        <out>3950</out>
                        <file id="file_video_17">
                            <duration>40</duration>
                            <rate>
                                <timebase>24</timebase>
                                <ntsc>TRUE</ntsc>
                            </rate>
                            <name>Spoken Video 17</name>
                            <pathurl>file:///Users/duc/Videos/20240718_C0925_copy.MP4</pathurl>
                            <timecode>
                                <string>00:00:00:00</string>
                                <displayformat>NDF</displayformat>
                                <rate>
                                    <timebase>24</timebase>
                                    <ntsc>TRUE</ntsc>
                                </rate>
                            </timecode>
                            <media>
                                <video>
                                    <samplecharacteristics>
                                        <width>1920</width>
                                        <height>1080</height>
                                    </samplecharacteristics>
                                </video>
                            </media>
                        </file>
                    </clipitem>
                    <clipitem id="spoken_video_18">
                        <name>Spoken Video 18</name>
                        <duration>3721</duration>
                        <rate>
                            <timebase>24</timebase>
                            <ntsc>TRUE</ntsc>
                        </rate>
                        <start>4041</start>
                        <end>7763</end>
                        <enabled>TRUE</enabled>
                        <in>4041</in>
                        <out>7763</out>
                        <file id="file_video_18">
                            <duration>3721</duration>
                            <rate>
                                <timebase>24</timebase>
                                <ntsc>TRUE</ntsc>
                            </rate>
                            <name>Spoken Video 18</name>
                            <pathurl>file:///Users/duc/Videos/20240718_C0925_copy.MP4</pathurl>
                            <timecode>
                                <string>00:00:00:00</string>
                                <displayformat>NDF</displayformat>
                                <rate>
                                    <timebase>24</timebase>
                                    <ntsc>TRUE</ntsc>
                                </rate>
                            </timecode>
                            <media>
                                <video>
                                    <samplecharacteristics>
                                        <width>1920</width>
                                        <height>1080</height>
                                    </samplecharacteristics>
                                </video>
                            </media>
                        </file>
                    </clipitem>
                    <clipitem id="spoken_video_19">
                        <name>Spoken Video 19</name>
                        <duration>482</duration>
                        <rate>
                            <timebase>24</timebase>
                            <ntsc>TRUE</ntsc>
                        </rate>
                        <start>7786</start>
                        <end>8269</end>
                        <enabled>TRUE</enabled>
                        <in>7786</in>
                        <out>8269</out>
                        <file id="file_video_19">
                            <duration>482</duration>
                            <rate>
                                <timebase>24</timebase>
                                <ntsc>TRUE</ntsc>
                            </rate>
                            <name>Spoken Video 19</name>
                            <pathurl>file:///Users/duc/Videos/20240718_C0925_copy.MP4</pathurl>
                            <timecode>
                                <string>00:00:00:00</string>
                                <displayformat>NDF</displayformat>
                                <rate>
                                    <timebase>24</timebase>
                                    <ntsc>TRUE</ntsc>
                                </rate>
                            </timecode>
                            <media>
                                <video>
                                    <samplecharacteristics>
                                        <width>1920</width>
                                        <height>1080</height>
                                    </samplecharacteristics>
                                </video>
                            </media>
                        </file>
                    </clipitem>
                    <clipitem id="spoken_video_20">
                        <name>Spoken Video 20</name>
                        <duration>659</duration>
                        <rate>
                            <timebase>24</timebase>
                            <ntsc>TRUE</ntsc>
                        </rate>
                        <start>8285</start>
                        <end>8945</end>
                        <enabled>TRUE</enabled>
                        <in>8285</in>
                        <out>8945</out>
                        <file id="file_video_20">
                            <duration>659</duration>
                            <rate>
                                <timebase>24</timebase>
                                <ntsc>TRUE</ntsc>
                            </rate>
                            <name>Spoken Video 20</name>
                            <pathurl>file:///Users/duc/Videos/20240718_C0925_copy.MP4</pathurl>
                            <timecode>
                                <string>00:00:00:00</string>
                                <displayformat>NDF</displayformat>
                                <rate>
                                    <timebase>24</timebase>
                                    <ntsc>TRUE</ntsc>
                                </rate>
                            </timecode>
                            <media>
                                <video>
                                    <samplecharacteristics>
                                        <width>1920</width>
                                        <height>1080</height>
                                    </samplecharacteristics>
                                </video>
                            </media>
                        </file>
                    </clipitem>
                    <clipitem id="spoken_video_21">
                        <name>Spoken Video 21</name>
                        <duration>793</duration>
                        <rate>
                            <timebase>24</timebase>
                            <ntsc>TRUE</ntsc>
                        </rate>
                        <start>8965</start>
                        <end>9759</end>
                        <enabled>TRUE</enabled>
                        <in>8965</in>
                        <out>9759</out>
                        <file id="file_video_21">
                            <duration>793</duration>
                            <rate>
                                <timebase>24</timebase>
                                <ntsc>TRUE</ntsc>
                            </rate>
                            <name>Spoken Video 21</name>
                            <pathurl>file:///Users/duc/Videos/20240718_C0925_copy.MP4</pathurl>
                            <timecode>
                                <string>00:00:00:00</string>
                                <displayformat>NDF</displayformat>
                                <rate>
                                    <timebase>24</timebase>
                                    <ntsc>TRUE</ntsc>
                                </rate>
                            </timecode>
                            <media>
                                <video>
                                    <samplecharacteristics>
                                        <width>1920</width>
                                        <height>1080</height>
                                    </samplecharacteristics>
                                </video>
                            </media>
                        </file>
                    </clipitem>
                    <clipitem id="spoken_video_22">
                        <name>Spoken Video 22</name>
                        <duration>108</duration>
                        <rate>
                            <timebase>24</timebase>
                            <ntsc>TRUE</ntsc>
                        </rate>
                        <start>9784</start>
                        <end>9893</end>
                        <enabled>TRUE</enabled>
                        <in>9784</in>
                        <out>9893</out>
                        <file id="file_video_22">
                            <duration>108</duration>
                            <rate>
                                <timebase>24</timebase>
                                <ntsc>TRUE</ntsc>
                            </rate>
                            <name>Spoken Video 22</name>
                            <pathurl>file:///Users/duc/Videos/20240718_C0925_copy.MP4</pathurl>
                            <timecode>
                                <string>00:00:00:00</string>
                                <displayformat>NDF</displayformat>
                                <rate>
                                    <timebase>24</timebase>
                                    <ntsc>TRUE</ntsc>
                                </rate>
                            </timecode>
                            <media>
                                <video>
                                    <samplecharacteristics>
                                        <width>1920</width>
                                        <height>1080</height>
                                    </samplecharacteristics>
                                </video>
                            </media>
                        </file>
                    </clipitem>
                    <clipitem id="spoken_video_23">
                        <name>Spoken Video 23</name>
                        <duration>326</duration>
                        <rate>
                            <timebase>24</timebase>
                            <ntsc>TRUE</ntsc>
                        </rate>
                        <start>9912</start>
                        <end>10239</end>
                        <enabled>TRUE</enabled>
                        <in>9912</in>
                        <out>10239</out>
                        <file id="file_video_23">
                            <duration>326</duration>
                            <rate>
                                <timebase>24</timebase>
                                <ntsc>TRUE</ntsc>
                            </rate>
                            <name>Spoken Video 23</name>
                            <pathurl>file:///Users/duc/Videos/20240718_C0925_copy.MP4</pathurl>
                            <timecode>
                                <string>00:00:00:00</string>
                                <displayformat>NDF</displayformat>
                                <rate>
                                    <timebase>24</timebase>
                                    <ntsc>TRUE</ntsc>
                                </rate>
                            </timecode>
                            <media>
                                <video>
                                    <samplecharacteristics>
                                        <width>1920</width>
                                        <height>1080</height>
                                    </samplecharacteristics>
                                </video>
                            </media>
                        </file>
                    </clipitem>
                    <clipitem id="spoken_video_24">
                        <name>Spoken Video 24</name>
                        <duration>493</duration>
                        <rate>
                            <timebase>24</timebase>
                            <ntsc>TRUE</ntsc>
                        </rate>
                        <start>10264</start>
                        <end>10758</end>
                        <enabled>TRUE</enabled>
                        <in>10264</in>
                        <out>10758</out>
                        <file id="file_video_24">
                            <duration>493</duration>
                            <rate>
                                <timebase>24</timebase>
                                <ntsc>TRUE</ntsc>
                            </rate>
                            <name>Spoken Video 24</name>
                            <pathurl>file:///Users/duc/Videos/20240718_C0925_copy.MP4</pathurl>
                            <timecode>
                                <string>00:00:00:00</string>
                                <displayformat>NDF</displayformat>
                                <rate>
                                    <timebase>24</timebase>
                                    <ntsc>TRUE</ntsc>
                                </rate>
                            </timecode>
                            <media>
                                <video>
                                    <samplecharacteristics>
                                        <width>1920</width>
                                        <height>1080</height>
                                    </samplecharacteristics>
                                </video>
                            </media>
                        </file>
                    </clipitem>
                    <clipitem id="spoken_video_25">
                        <name>Spoken Video 25</name>
                        <duration>643</duration>
                        <rate>
                            <timebase>24</timebase>
                            <ntsc>TRUE</ntsc>
                        </rate>
                        <start>10778</start>
                        <end>11421</end>
                        <enabled>TRUE</enabled>
                        <in>10778</in>
                        <out>11421</out>
                        <file id="file_video_25">
                            <duration>643</duration>
                            <rate>
                                <timebase>24</timebase>
                                <ntsc>TRUE</ntsc>
                            </rate>
                            <name>Spoken Video 25</name>
                            <pathurl>file:///Users/duc/Videos/20240718_C0925_copy.MP4</pathurl>
                            <timecode>
                                <string>00:00:00:00</string>
                                <displayformat>NDF</displayformat>
                                <rate>
                                    <timebase>24</timebase>
                                    <ntsc>TRUE</ntsc>
                                </rate>
                            </timecode>
                            <media>
                                <video>
                                    <samplecharacteristics>
                                        <width>1920</width>
                                        <height>1080</height>
                                    </samplecharacteristics>
                                </video>
                            </media>
                        </file>
                    </clipitem>
                    <clipitem id="spoken_video_26">
                        <name>Spoken Video 26</name>
                        <duration>101</duration>
                        <rate>
                            <timebase>24</timebase>
                            <ntsc>TRUE</ntsc>
                        </rate>
                        <start>11511</start>
                        <end>11613</end>
                        <enabled>TRUE</enabled>
                        <in>11511</in>
                        <out>11613</out>
                        <file id="file_video_26">
                            <duration>101</duration>
                            <rate>
                                <timebase>24</timebase>
                                <ntsc>TRUE</ntsc>
                            </rate>
                            <name>Spoken Video 26</name>
                            <pathurl>file:///Users/duc/Videos/20240718_C0925_copy.MP4</pathurl>
                            <timecode>
                                <string>00:00:00:00</string>
                                <displayformat>NDF</displayformat>
                                <rate>
                                    <timebase>24</timebase>
                                    <ntsc>TRUE</ntsc>
                                </rate>
                            </timecode>
                            <media>
                                <video>
                                    <samplecharacteristics>
                                        <width>1920</width>
                                        <height>1080</height>
                                    </samplecharacteristics>
                                </video>
                            </media>
                        </file>
                    </clipitem>
                    <clipitem id="spoken_video_27">
                        <name>Spoken Video 27</name>
                        <duration>0</duration>
                        <rate>
                            <timebase>24</timebase>
                            <ntsc>TRUE</ntsc>
                        </rate>
                        <start>11643</start>
                        <end>11643</end>
                        <enabled>TRUE</enabled>
                        <in>11643</in>
                        <out>11643</out>
                        <file id="file_video_27">
                            <duration>0</duration>
                            <rate>
                                <timebase>24</timebase>
                                <ntsc>TRUE</ntsc>
                            </rate>
                            <name>Spoken Video 27</name>
                            <pathurl>file:///Users/duc/Videos/20240718_C0925_copy.MP4</pathurl>
                            <timecode>
                                <string>00:00:00:00</string>
                                <displayformat>NDF</displayformat>
                                <rate>
                                    <timebase>24</timebase>
                                    <ntsc>TRUE</ntsc>
                                </rate>
                            </timecode>
                            <media>
                                <video>
                                    <samplecharacteristics>
                                        <width>1920</width>
                                        <height>1080</height>
                                    </samplecharacteristics>
                                </video>
                            </media>
                        </file>
                    </clipitem>
                </track>
                <format>
                    <samplecharacteristics>
                        <width>1920</width>
                        <height>1080</height>
                        <pixelaspectratio>square</pixelaspectratio>
                        <rate>
                            <timebase>24</timebase>
                            <ntsc>TRUE</ntsc>
                        </rate>
                        <codec>
                            <appspecificdata>
                                <appname>Final Cut Pro</appname>
                                <appmanufacturer>Apple Inc.</appmanufacturer>
                                <data>
                                    <qtcodec/>
                                </data>
                            </appspecificdata>
                        </codec>
                    </samplecharacteristics>
                </format>
            </video>
            <audio>
                <track>
                    <enabled>TRUE</enabled>
                    <locked>FALSE</locked>
                    <clipitem id="spoken_audio_0">
                        <name>Spoken Audio 0</name>
                        <duration>2</duration>
                        <rate>
                            <timebase>24</timebase>
                            <ntsc>TRUE</ntsc>
                        </rate>
                        <start>22</start>
                        <end>25</end>
                        <enabled>TRUE</enabled>
                        <in>22</in>
                        <out>25</out>
                        <file id="file_audio_0">
                            <duration>2</duration>
                            <rate>
                                <timebase>24</timebase>
                                <ntsc>TRUE</ntsc>
                            </rate>
                            <name>Spoken Audio 0</name>
                            <pathurl>file:///Users/duc/Videos/20240718_C0925_copy.MP4</pathurl>
                            <timecode>
                                <string>00:00:00:00</string>
                                <displayformat>NDF</displayformat>
                                <rate>
                                    <timebase>24</timebase>
                                    <ntsc>TRUE</ntsc>
                                </rate>
                            </timecode>
                            <media>
                                <audio>
                                    <channelcount>2</channelcount>
                                </audio>
                            </media>
                        </file>
                        <sourcetrack>
                            <mediatype>audio</mediatype>
                            <trackindex>1</trackindex>
                        </sourcetrack>
                    </clipitem>
                    <clipitem id="spoken_audio_1">
                        <name>Spoken Audio 1</name>
                        <duration>0</duration>
                        <rate>
                            <timebase>24</timebase>
                            <ntsc>TRUE</ntsc>
                        </rate>
                        <start>40</start>
                        <end>40</end>
                        <enabled>TRUE</enabled>
                        <in>40</in>
                        <out>40</out>
                        <file id="file_audio_1">
                            <duration>0</duration>
                            <rate>
                                <timebase>24</timebase>
                                <ntsc>TRUE</ntsc>
                            </rate>
                            <name>Spoken Audio 1</name>
                            <pathurl>file:///Users/duc/Videos/20240718_C0925_copy.MP4</pathurl>
                            <timecode>
                                <string>00:00:00:00</string>
                                <displayformat>NDF</displayformat>
                                <rate>
                                    <timebase>24</timebase>
                                    <ntsc>TRUE</ntsc>
                                </rate>
                            </timecode>
                            <media>
                                <audio>
                                    <channelcount>2</channelcount>
                                </audio>
                            </media>
                        </file>
                        <sourcetrack>
                            <mediatype>audio</mediatype>
                            <trackindex>1</trackindex>
                        </sourcetrack>
                    </clipitem>
                    <clipitem id="spoken_audio_2">
                        <name>Spoken Audio 2</name>
                        <duration>20</duration>
                        <rate>
                            <timebase>24</timebase>
                            <ntsc>TRUE</ntsc>
                        </rate>
                        <start>60</start>
                        <end>80</end>
                        <enabled>TRUE</enabled>
                        <in>60</in>
                        <out>80</out>
                        <file id="file_audio_2">
                            <duration>20</duration>
                            <rate>
                                <timebase>24</timebase>
                                <ntsc>TRUE</ntsc>
                            </rate>
                            <name>Spoken Audio 2</name>
                            <pathurl>file:///Users/duc/Videos/20240718_C0925_copy.MP4</pathurl>
                            <timecode>
                                <string>00:00:00:00</string>
                                <displayformat>NDF</displayformat>
                                <rate>
                                    <timebase>24</timebase>
                                    <ntsc>TRUE</ntsc>
                                </rate>
                            </timecode>
                            <media>
                                <audio>
                                    <channelcount>2</channelcount>
                                </audio>
                            </media>
                        </file>
                        <sourcetrack>
                            <mediatype>audio</mediatype>
                            <trackindex>1</trackindex>
                        </sourcetrack>
                    </clipitem>
                    <clipitem id="spoken_audio_3">
                        <name>Spoken Audio 3</name>
                        <duration>194</duration>
                        <rate>
                            <timebase>24</timebase>
                            <ntsc>TRUE</ntsc>
                        </rate>
                        <start>97</start>
                        <end>291</end>
                        <enabled>TRUE</enabled>
                        <in>97</in>
                        <out>291</out>
                        <file id="file_audio_3">
                            <duration>194</duration>
                            <rate>
                                <timebase>24</timebase>
                                <ntsc>TRUE</ntsc>
                            </rate>
                            <name>Spoken Audio 3</name>
                            <pathurl>file:///Users/duc/Videos/20240718_C0925_copy.MP4</pathurl>
                            <timecode>
                                <string>00:00:00:00</string>
                                <displayformat>NDF</displayformat>
                                <rate>
                                    <timebase>24</timebase>
                                    <ntsc>TRUE</ntsc>
                                </rate>
                            </timecode>
                            <media>
                                <audio>
                                    <channelcount>2</channelcount>
                                </audio>
                            </media>
                        </file>
                        <sourcetrack>
                            <mediatype>audio</mediatype>
                            <trackindex>1</trackindex>
                        </sourcetrack>
                    </clipitem>
                    <clipitem id="spoken_audio_4">
                        <name>Spoken Audio 4</name>
                        <duration>68</duration>
                        <rate>
                            <timebase>24</timebase>
                            <ntsc>TRUE</ntsc>
                        </rate>
                        <start>308</start>
                        <end>376</end>
                        <enabled>TRUE</enabled>
                        <in>308</in>
                        <out>376</out>
                        <file id="file_audio_4">
                            <duration>68</duration>
                            <rate>
                                <timebase>24</timebase>
                                <ntsc>TRUE</ntsc>
                            </rate>
                            <name>Spoken Audio 4</name>
                            <pathurl>file:///Users/duc/Videos/20240718_C0925_copy.MP4</pathurl>
                            <timecode>
                                <string>00:00:00:00</string>
                                <displayformat>NDF</displayformat>
                                <rate>
                                    <timebase>24</timebase>
                                    <ntsc>TRUE</ntsc>
                                </rate>
                            </timecode>
                            <media>
                                <audio>
                                    <channelcount>2</channelcount>
                                </audio>
                            </media>
                        </file>
                        <sourcetrack>
                            <mediatype>audio</mediatype>
                            <trackindex>1</trackindex>
                        </sourcetrack>
                    </clipitem>
                    <clipitem id="spoken_audio_5">
                        <name>Spoken Audio 5</name>
                        <duration>84</duration>
                        <rate>
                            <timebase>24</timebase>
                            <ntsc>TRUE</ntsc>
                        </rate>
                        <start>395</start>
                        <end>480</end>
                        <enabled>TRUE</enabled>
                        <in>395</in>
                        <out>480</out>
                        <file id="file_audio_5">
                            <duration>84</duration>
                            <rate>
                                <timebase>24</timebase>
                                <ntsc>TRUE</ntsc>
                            </rate>
                            <name>Spoken Audio 5</name>
                            <pathurl>file:///Users/duc/Videos/20240718_C0925_copy.MP4</pathurl>
                            <timecode>
                                <string>00:00:00:00</string>
                                <displayformat>NDF</displayformat>
                                <rate>
                                    <timebase>24</timebase>
                                    <ntsc>TRUE</ntsc>
                                </rate>
                            </timecode>
                            <media>
                                <audio>
                                    <channelcount>2</channelcount>
                                </audio>
                            </media>
                        </file>
                        <sourcetrack>
                            <mediatype>audio</mediatype>
                            <trackindex>1</trackindex>
                        </sourcetrack>
                    </clipitem>
                    <clipitem id="spoken_audio_6">
                        <name>Spoken Audio 6</name>
                        <duration>144</duration>
                        <rate>
                            <timebase>24</timebase>
                            <ntsc>TRUE</ntsc>
                        </rate>
                        <start>495</start>
                        <end>640</end>
                        <enabled>TRUE</enabled>
                        <in>495</in>
                        <out>640</out>
                        <file id="file_audio_6">
                            <duration>144</duration>
                            <rate>
                                <timebase>24</timebase>
                                <ntsc>TRUE</ntsc>
                            </rate>
                            <name>Spoken Audio 6</name>
                            <pathurl>file:///Users/duc/Videos/20240718_C0925_copy.MP4</pathurl>
                            <timecode>
                                <string>00:00:00:00</string>
                                <displayformat>NDF</displayformat>
                                <rate>
                                    <timebase>24</timebase>
                                    <ntsc>TRUE</ntsc>
                                </rate>
                            </timecode>
                            <media>
                                <audio>
                                    <channelcount>2</channelcount>
                                </audio>
                            </media>
                        </file>
                        <sourcetrack>
                            <mediatype>audio</mediatype>
                            <trackindex>1</trackindex>
                        </sourcetrack>
                    </clipitem>
                    <clipitem id="spoken_audio_7">
                        <name>Spoken Audio 7</name>
                        <duration>128</duration>
                        <rate>
                            <timebase>24</timebase>
                            <ntsc>TRUE</ntsc>
                        </rate>
                        <start>853</start>
                        <end>981</end>
                        <enabled>TRUE</enabled>
                        <in>853</in>
                        <out>981</out>
                        <file id="file_audio_7">
                            <duration>128</duration>
                            <rate>
                                <timebase>24</timebase>
                                <ntsc>TRUE</ntsc>
                            </rate>
                            <name>Spoken Audio 7</name>
                            <pathurl>file:///Users/duc/Videos/20240718_C0925_copy.MP4</pathurl>
                            <timecode>
                                <string>00:00:00:00</string>
                                <displayformat>NDF</displayformat>
                                <rate>
                                    <timebase>24</timebase>
                                    <ntsc>TRUE</ntsc>
                                </rate>
                            </timecode>
                            <media>
                                <audio>
                                    <channelcount>2</channelcount>
                                </audio>
                            </media>
                        </file>
                        <sourcetrack>
                            <mediatype>audio</mediatype>
                            <trackindex>1</trackindex>
                        </sourcetrack>
                    </clipitem>
                    <clipitem id="spoken_audio_8">
                        <name>Spoken Audio 8</name>
                        <duration>548</duration>
                        <rate>
                            <timebase>24</timebase>
                            <ntsc>TRUE</ntsc>
                        </rate>
                        <start>997</start>
                        <end>1546</end>
                        <enabled>TRUE</enabled>
                        <in>997</in>
                        <out>1546</out>
                        <file id="file_audio_8">
                            <duration>548</duration>
                            <rate>
                                <timebase>24</timebase>
                                <ntsc>TRUE</ntsc>
                            </rate>
                            <name>Spoken Audio 8</name>
                            <pathurl>file:///Users/duc/Videos/20240718_C0925_copy.MP4</pathurl>
                            <timecode>
                                <string>00:00:00:00</string>
                                <displayformat>NDF</displayformat>
                                <rate>
                                    <timebase>24</timebase>
                                    <ntsc>TRUE</ntsc>
                                </rate>
                            </timecode>
                            <media>
                                <audio>
                                    <channelcount>2</channelcount>
                                </audio>
                            </media>
                        </file>
                        <sourcetrack>
                            <mediatype>audio</mediatype>
                            <trackindex>1</trackindex>
                        </sourcetrack>
                    </clipitem>
                    <clipitem id="spoken_audio_9">
                        <name>Spoken Audio 9</name>
                        <duration>633</duration>
                        <rate>
                            <timebase>24</timebase>
                            <ntsc>TRUE</ntsc>
                        </rate>
                        <start>1594</start>
                        <end>2227</end>
                        <enabled>TRUE</enabled>
                        <in>1594</in>
                        <out>2227</out>
                        <file id="file_audio_9">
                            <duration>633</duration>
                            <rate>
                                <timebase>24</timebase>
                                <ntsc>TRUE</ntsc>
                            </rate>
                            <name>Spoken Audio 9</name>
                            <pathurl>file:///Users/duc/Videos/20240718_C0925_copy.MP4</pathurl>
                            <timecode>
                                <string>00:00:00:00</string>
                                <displayformat>NDF</displayformat>
                                <rate>
                                    <timebase>24</timebase>
                                    <ntsc>TRUE</ntsc>
                                </rate>
                            </timecode>
                            <media>
                                <audio>
                                    <channelcount>2</channelcount>
                                </audio>
                            </media>
                        </file>
                        <sourcetrack>
                            <mediatype>audio</mediatype>
                            <trackindex>1</trackindex>
                        </sourcetrack>
                    </clipitem>
                    <clipitem id="spoken_audio_10">
                        <name>Spoken Audio 10</name>
                        <duration>187</duration>
                        <rate>
                            <timebase>24</timebase>
                            <ntsc>TRUE</ntsc>
                        </rate>
                        <start>2241</start>
                        <end>2428</end>
                        <enabled>TRUE</enabled>
                        <in>2241</in>
                        <out>2428</out>
                        <file id="file_audio_10">
                            <duration>187</duration>
                            <rate>
                                <timebase>24</timebase>
                                <ntsc>TRUE</ntsc>
                            </rate>
                            <name>Spoken Audio 10</name>
                            <pathurl>file:///Users/duc/Videos/20240718_C0925_copy.MP4</pathurl>
                            <timecode>
                                <string>00:00:00:00</string>
                                <displayformat>NDF</displayformat>
                                <rate>
                                    <timebase>24</timebase>
                                    <ntsc>TRUE</ntsc>
                                </rate>
                            </timecode>
                            <media>
                                <audio>
                                    <channelcount>2</channelcount>
                                </audio>
                            </media>
                        </file>
                        <sourcetrack>
                            <mediatype>audio</mediatype>
                            <trackindex>1</trackindex>
                        </sourcetrack>
                    </clipitem>
                    <clipitem id="spoken_audio_11">
                        <name>Spoken Audio 11</name>
                        <duration>702</duration>
                        <rate>
                            <timebase>24</timebase>
                            <ntsc>TRUE</ntsc>
                        </rate>
                        <start>2441</start>
                        <end>3144</end>
                        <enabled>TRUE</enabled>
                        <in>2441</in>
                        <out>3144</out>
                        <file id="file_audio_11">
                            <duration>702</duration>
                            <rate>
                                <timebase>24</timebase>
                                <ntsc>TRUE</ntsc>
                            </rate>
                            <name>Spoken Audio 11</name>
                            <pathurl>file:///Users/duc/Videos/20240718_C0925_copy.MP4</pathurl>
                            <timecode>
                                <string>00:00:00:00</string>
                                <displayformat>NDF</displayformat>
                                <rate>
                                    <timebase>24</timebase>
                                    <ntsc>TRUE</ntsc>
                                </rate>
                            </timecode>
                            <media>
                                <audio>
                                    <channelcount>2</channelcount>
                                </audio>
                            </media>
                        </file>
                        <sourcetrack>
                            <mediatype>audio</mediatype>
                            <trackindex>1</trackindex>
                        </sourcetrack>
                    </clipitem>
                    <clipitem id="spoken_audio_12">
                        <name>Spoken Audio 12</name>
                        <duration>240</duration>
                        <rate>
                            <timebase>24</timebase>
                            <ntsc>TRUE</ntsc>
                        </rate>
                        <start>3159</start>
                        <end>3400</end>
                        <enabled>TRUE</enabled>
                        <in>3159</in>
                        <out>3400</out>
                        <file id="file_audio_12">
                            <duration>240</duration>
                            <rate>
                                <timebase>24</timebase>
                                <ntsc>TRUE</ntsc>
                            </rate>
                            <name>Spoken Audio 12</name>
                            <pathurl>file:///Users/duc/Videos/20240718_C0925_copy.MP4</pathurl>
                            <timecode>
                                <string>00:00:00:00</string>
                                <displayformat>NDF</displayformat>
                                <rate>
                                    <timebase>24</timebase>
                                    <ntsc>TRUE</ntsc>
                                </rate>
                            </timecode>
                            <media>
                                <audio>
                                    <channelcount>2</channelcount>
                                </audio>
                            </media>
                        </file>
                        <sourcetrack>
                            <mediatype>audio</mediatype>
                            <trackindex>1</trackindex>
                        </sourcetrack>
                    </clipitem>
                    <clipitem id="spoken_audio_13">
                        <name>Spoken Audio 13</name>
                        <duration>55</duration>
                        <rate>
                            <timebase>24</timebase>
                            <ntsc>TRUE</ntsc>
                        </rate>
                        <start>3431</start>
                        <end>3486</end>
                        <enabled>TRUE</enabled>
                        <in>3431</in>
                        <out>3486</out>
                        <file id="file_audio_13">
                            <duration>55</duration>
                            <rate>
                                <timebase>24</timebase>
                                <ntsc>TRUE</ntsc>
                            </rate>
                            <name>Spoken Audio 13</name>
                            <pathurl>file:///Users/duc/Videos/20240718_C0925_copy.MP4</pathurl>
                            <timecode>
                                <string>00:00:00:00</string>
                                <displayformat>NDF</displayformat>
                                <rate>
                                    <timebase>24</timebase>
                                    <ntsc>TRUE</ntsc>
                                </rate>
                            </timecode>
                            <media>
                                <audio>
                                    <channelcount>2</channelcount>
                                </audio>
                            </media>
                        </file>
                        <sourcetrack>
                            <mediatype>audio</mediatype>
                            <trackindex>1</trackindex>
                        </sourcetrack>
                    </clipitem>
                    <clipitem id="spoken_audio_14">
                        <name>Spoken Audio 14</name>
                        <duration>4</duration>
                        <rate>
                            <timebase>24</timebase>
                            <ntsc>TRUE</ntsc>
                        </rate>
                        <start>3628</start>
                        <end>3632</end>
                        <enabled>TRUE</enabled>
                        <in>3628</in>
                        <out>3632</out>
                        <file id="file_audio_14">
                            <duration>4</duration>
                            <rate>
                                <timebase>24</timebase>
                                <ntsc>TRUE</ntsc>
                            </rate>
                            <name>Spoken Audio 14</name>
                            <pathurl>file:///Users/duc/Videos/20240718_C0925_copy.MP4</pathurl>
                            <timecode>
                                <string>00:00:00:00</string>
                                <displayformat>NDF</displayformat>
                                <rate>
                                    <timebase>24</timebase>
                                    <ntsc>TRUE</ntsc>
                                </rate>
                            </timecode>
                            <media>
                                <audio>
                                    <channelcount>2</channelcount>
                                </audio>
                            </media>
                        </file>
                        <sourcetrack>
                            <mediatype>audio</mediatype>
                            <trackindex>1</trackindex>
                        </sourcetrack>
                    </clipitem>
                    <clipitem id="spoken_audio_15">
                        <name>Spoken Audio 15</name>
                        <duration>0</duration>
                        <rate>
                            <timebase>24</timebase>
                            <ntsc>TRUE</ntsc>
                        </rate>
                        <start>3651</start>
                        <end>3651</end>
                        <enabled>TRUE</enabled>
                        <in>3651</in>
                        <out>3651</out>
                        <file id="file_audio_15">
                            <duration>0</duration>
                            <rate>
                                <timebase>24</timebase>
                                <ntsc>TRUE</ntsc>
                            </rate>
                            <name>Spoken Audio 15</name>
                            <pathurl>file:///Users/duc/Videos/20240718_C0925_copy.MP4</pathurl>
                            <timecode>
                                <string>00:00:00:00</string>
                                <displayformat>NDF</displayformat>
                                <rate>
                                    <timebase>24</timebase>
                                    <ntsc>TRUE</ntsc>
                                </rate>
                            </timecode>
                            <media>
                                <audio>
                                    <channelcount>2</channelcount>
                                </audio>
                            </media>
                        </file>
                        <sourcetrack>
                            <mediatype>audio</mediatype>
                            <trackindex>1</trackindex>
                        </sourcetrack>
                    </clipitem>
                    <clipitem id="spoken_audio_16">
                        <name>Spoken Audio 16</name>
                        <duration>63</duration>
                        <rate>
                            <timebase>24</timebase>
                            <ntsc>TRUE</ntsc>
                        </rate>
                        <start>3833</start>
                        <end>3897</end>
                        <enabled>TRUE</enabled>
                        <in>3833</in>
                        <out>3897</out>
                        <file id="file_audio_16">
                            <duration>63</duration>
                            <rate>
                                <timebase>24</timebase>
                                <ntsc>TRUE</ntsc>
                            </rate>
                            <name>Spoken Audio 16</name>
                            <pathurl>file:///Users/duc/Videos/20240718_C0925_copy.MP4</pathurl>
                            <timecode>
                                <string>00:00:00:00</string>
                                <displayformat>NDF</displayformat>
                                <rate>
                                    <timebase>24</timebase>
                                    <ntsc>TRUE</ntsc>
                                </rate>
                            </timecode>
                            <media>
                                <audio>
                                    <channelcount>2</channelcount>
                                </audio>
                            </media>
                        </file>
                        <sourcetrack>
                            <mediatype>audio</mediatype>
                            <trackindex>1</trackindex>
                        </sourcetrack>
                    </clipitem>
                    <clipitem id="spoken_audio_17">
                        <name>Spoken Audio 17</name>
                        <duration>40</duration>
                        <rate>
                            <timebase>24</timebase>
                            <ntsc>TRUE</ntsc>
                        </rate>
                        <start>3909</start>
                        <end>3950</end>
                        <enabled>TRUE</enabled>
                        <in>3909</in>
                        <out>3950</out>
                        <file id="file_audio_17">
                            <duration>40</duration>
                            <rate>
                                <timebase>24</timebase>
                                <ntsc>TRUE</ntsc>
                            </rate>
                            <name>Spoken Audio 17</name>
                            <pathurl>file:///Users/duc/Videos/20240718_C0925_copy.MP4</pathurl>
                            <timecode>
                                <string>00:00:00:00</string>
                                <displayformat>NDF</displayformat>
                                <rate>
                                    <timebase>24</timebase>
                                    <ntsc>TRUE</ntsc>
                                </rate>
                            </timecode>
                            <media>
                                <audio>
                                    <channelcount>2</channelcount>
                                </audio>
                            </media>
                        </file>
                        <sourcetrack>
                            <mediatype>audio</mediatype>
                            <trackindex>1</trackindex>
                        </sourcetrack>
                    </clipitem>
                    <clipitem id="spoken_audio_18">
                        <name>Spoken Audio 18</name>
                        <duration>3721</duration>
                        <rate>
                            <timebase>24</timebase>
                            <ntsc>TRUE</ntsc>
                        </rate>
                        <start>4041</start>
                        <end>7763</end>
                        <enabled>TRUE</enabled>
                        <in>4041</in>
                        <out>7763</out>
                        <file id="file_audio_18">
                            <duration>3721</duration>
                            <rate>
                                <timebase>24</timebase>
                                <ntsc>TRUE</ntsc>
                            </rate>
                            <name>Spoken Audio 18</name>
                            <pathurl>file:///Users/duc/Videos/20240718_C0925_copy.MP4</pathurl>
                            <timecode>
                                <string>00:00:00:00</string>
                                <displayformat>NDF</displayformat>
                                <rate>
                                    <timebase>24</timebase>
                                    <ntsc>TRUE</ntsc>
                                </rate>
                            </timecode>
                            <media>
                                <audio>
                                    <channelcount>2</channelcount>
                                </audio>
                            </media>
                        </file>
                        <sourcetrack>
                            <mediatype>audio</mediatype>
                            <trackindex>1</trackindex>
                        </sourcetrack>
                    </clipitem>
                    <clipitem id="spoken_audio_19">
                        <name>Spoken Audio 19</name>
                        <duration>482</duration>
                        <rate>
                            <timebase>24</timebase>
                            <ntsc>TRUE</ntsc>
                        </rate>
                        <start>7786</start>
                        <end>8269</end>
                        <enabled>TRUE</enabled>
                        <in>7786</in>
                        <out>8269</out>
                        <file id="file_audio_19">
                            <duration>482</duration>
                            <rate>
                                <timebase>24</timebase>
                                <ntsc>TRUE</ntsc>
                            </rate>
                            <name>Spoken Audio 19</name>
                            <pathurl>file:///Users/duc/Videos/20240718_C0925_copy.MP4</pathurl>
                            <timecode>
                                <string>00:00:00:00</string>
                                <displayformat>NDF</displayformat>
                                <rate>
                                    <timebase>24</timebase>
                                    <ntsc>TRUE</ntsc>
                                </rate>
                            </timecode>
                            <media>
                                <audio>
                                    <channelcount>2</channelcount>
                                </audio>
                            </media>
                        </file>
                        <sourcetrack>
                            <mediatype>audio</mediatype>
                            <trackindex>1</trackindex>
                        </sourcetrack>
                    </clipitem>
                    <clipitem id="spoken_audio_20">
                        <name>Spoken Audio 20</name>
                        <duration>659</duration>
                        <rate>
                            <timebase>24</timebase>
                            <ntsc>TRUE</ntsc>
                        </rate>
                        <start>8285</start>
                        <end>8945</end>
                        <enabled>TRUE</enabled>
                        <in>8285</in>
                        <out>8945</out>
                        <file id="file_audio_20">
                            <duration>659</duration>
                            <rate>
                                <timebase>24</timebase>
                                <ntsc>TRUE</ntsc>
                            </rate>
                            <name>Spoken Audio 20</name>
                            <pathurl>file:///Users/duc/Videos/20240718_C0925_copy.MP4</pathurl>
                            <timecode>
                                <string>00:00:00:00</string>
                                <displayformat>NDF</displayformat>
                                <rate>
                                    <timebase>24</timebase>
                                    <ntsc>TRUE</ntsc>
                                </rate>
                            </timecode>
                            <media>
                                <audio>
                                    <channelcount>2</channelcount>
                                </audio>
                            </media>
                        </file>
                        <sourcetrack>
                            <mediatype>audio</mediatype>
                            <trackindex>1</trackindex>
                        </sourcetrack>
                    </clipitem>
                    <clipitem id="spoken_audio_21">
                        <name>Spoken Audio 21</name>
                        <duration>793</duration>
                        <rate>
                            <timebase>24</timebase>
                            <ntsc>TRUE</ntsc>
                        </rate>
                        <start>8965</start>
                        <end>9759</end>
                        <enabled>TRUE</enabled>
                        <in>8965</in>
                        <out>9759</out>
                        <file id="file_audio_21">
                            <duration>793</duration>
                            <rate>
                                <timebase>24</timebase>
                                <ntsc>TRUE</ntsc>
                            </rate>
                            <name>Spoken Audio 21</name>
                            <pathurl>file:///Users/duc/Videos/20240718_C0925_copy.MP4</pathurl>
                            <timecode>
                                <string>00:00:00:00</string>
                                <displayformat>NDF</displayformat>
                                <rate>
                                    <timebase>24</timebase>
                                    <ntsc>TRUE</ntsc>
                                </rate>
                            </timecode>
                            <media>
                                <audio>
                                    <channelcount>2</channelcount>
                                </audio>
                            </media>
                        </file>
                        <sourcetrack>
                            <mediatype>audio</mediatype>
                            <trackindex>1</trackindex>
                        </sourcetrack>
                    </clipitem>
                    <clipitem id="spoken_audio_22">
                        <name>Spoken Audio 22</name>
                        <duration>108</duration>
                        <rate>
                            <timebase>24</timebase>
                            <ntsc>TRUE</ntsc>
                        </rate>
                        <start>9784</start>
                        <end>9893</end>
                        <enabled>TRUE</enabled>
                        <in>9784</in>
                        <out>9893</out>
                        <file id="file_audio_22">
                            <duration>108</duration>
                            <rate>
                                <timebase>24</timebase>
                                <ntsc>TRUE</ntsc>
                            </rate>
                            <name>Spoken Audio 22</name>
                            <pathurl>file:///Users/duc/Videos/20240718_C0925_copy.MP4</pathurl>
                            <timecode>
                                <string>00:00:00:00</string>
                                <displayformat>NDF</displayformat>
                                <rate>
                                    <timebase>24</timebase>
                                    <ntsc>TRUE</ntsc>
                                </rate>
                            </timecode>
                            <media>
                                <audio>
                                    <channelcount>2</channelcount>
                                </audio>
                            </media>
                        </file>
                        <sourcetrack>
                            <mediatype>audio</mediatype>
                            <trackindex>1</trackindex>
                        </sourcetrack>
                    </clipitem>
                    <clipitem id="spoken_audio_23">
                        <name>Spoken Audio 23</name>
                        <duration>326</duration>
                        <rate>
                            <timebase>24</timebase>
                            <ntsc>TRUE</ntsc>
                        </rate>
                        <start>9912</start>
                        <end>10239</end>
                        <enabled>TRUE</enabled>
                        <in>9912</in>
                        <out>10239</out>
                        <file id="file_audio_23">
                            <duration>326</duration>
                            <rate>
                                <timebase>24</timebase>
                                <ntsc>TRUE</ntsc>
                            </rate>
                            <name>Spoken Audio 23</name>
                            <pathurl>file:///Users/duc/Videos/20240718_C0925_copy.MP4</pathurl>
                            <timecode>
                                <string>00:00:00:00</string>
                                <displayformat>NDF</displayformat>
                                <rate>
                                    <timebase>24</timebase>
                                    <ntsc>TRUE</ntsc>
                                </rate>
                            </timecode>
                            <media>
                                <audio>
                                    <channelcount>2</channelcount>
                                </audio>
                            </media>
                        </file>
                        <sourcetrack>
                            <mediatype>audio</mediatype>
                            <trackindex>1</trackindex>
                        </sourcetrack>
                    </clipitem>
                    <clipitem id="spoken_audio_24">
                        <name>Spoken Audio 24</name>
                        <duration>493</duration>
                        <rate>
                            <timebase>24</timebase>
                            <ntsc>TRUE</ntsc>
                        </rate>
                        <start>10264</start>
                        <end>10758</end>
                        <enabled>TRUE</enabled>
                        <in>10264</in>
                        <out>10758</out>
                        <file id="file_audio_24">
                            <duration>493</duration>
                            <rate>
                                <timebase>24</timebase>
                                <ntsc>TRUE</ntsc>
                            </rate>
                            <name>Spoken Audio 24</name>
                            <pathurl>file:///Users/duc/Videos/20240718_C0925_copy.MP4</pathurl>
                            <timecode>
                                <string>00:00:00:00</string>
                                <displayformat>NDF</displayformat>
                                <rate>
                                    <timebase>24</timebase>
                                    <ntsc>TRUE</ntsc>
                                </rate>
                            </timecode>
                            <media>
                                <audio>
                                    <channelcount>2</channelcount>
                                </audio>
                            </media>
                        </file>
                        <sourcetrack>
                            <mediatype>audio</mediatype>
                            <trackindex>1</trackindex>
                        </sourcetrack>
                    </clipitem>
                    <clipitem id="spoken_audio_25">
                        <name>Spoken Audio 25</name>
                        <duration>643</duration>
                        <rate>
                            <timebase>24</timebase>
                            <ntsc>TRUE</ntsc>
                        </rate>
                        <start>10778</start>
                        <end>11421</end>
                        <enabled>TRUE</enabled>
                        <in>10778</in>
                        <out>11421</out>
                        <file id="file_audio_25">
                            <duration>643</duration>
                            <rate>
                                <timebase>24</timebase>
                                <ntsc>TRUE</ntsc>
                            </rate>
                            <name>Spoken Audio 25</name>
                            <pathurl>file:///Users/duc/Videos/20240718_C0925_copy.MP4</pathurl>
                            <timecode>
                                <string>00:00:00:00</string>
                                <displayformat>NDF</displayformat>
                                <rate>
                                    <timebase>24</timebase>
                                    <ntsc>TRUE</ntsc>
                                </rate>
                            </timecode>
                            <media>
                                <audio>
                                    <channelcount>2</channelcount>
                                </audio>
                            </media>
                        </file>
                        <sourcetrack>
                            <mediatype>audio</mediatype>
                            <trackindex>1</trackindex>
                        </sourcetrack>
                    </clipitem>
                    <clipitem id="spoken_audio_26">
                        <name>Spoken Audio 26</name>
                        <duration>101</duration>
                        <rate>
                            <timebase>24</timebase>
                            <ntsc>TRUE</ntsc>
                        </rate>
                        <start>11511</start>
                        <end>11613</end>
                        <enabled>TRUE</enabled>
                        <in>11511</in>
                        <out>11613</out>
                        <file id="file_audio_26">
                            <duration>101</duration>
                            <rate>
                                <timebase>24</timebase>
                                <ntsc>TRUE</ntsc>
                            </rate>
                            <name>Spoken Audio 26</name>
                            <pathurl>file:///Users/duc/Videos/20240718_C0925_copy.MP4</pathurl>
                            <timecode>
                                <string>00:00:00:00</string>
                                <displayformat>NDF</displayformat>
                                <rate>
                                    <timebase>24</timebase>
                                    <ntsc>TRUE</ntsc>
                                </rate>
                            </timecode>
                            <media>
                                <audio>
                                    <channelcount>2</channelcount>
                                </audio>
                            </media>
                        </file>
                        <sourcetrack>
                            <mediatype>audio</mediatype>
                            <trackindex>1</trackindex>
                        </sourcetrack>
                    </clipitem>
                    <clipitem id="spoken_audio_27">
                        <name>Spoken Audio 27</name>
                        <duration>0</duration>
                        <rate>
                            <timebase>24</timebase>
                            <ntsc>TRUE</ntsc>
                        </rate>
                        <start>11643</start>
                        <end>11643</end>
                        <enabled>TRUE</enabled>
                        <in>11643</in>
                        <out>11643</out>
                        <file id="file_audio_27">
                            <duration>0</duration>
                            <rate>
                                <timebase>24</timebase>
                                <ntsc>TRUE</ntsc>
                            </rate>
                            <name>Spoken Audio 27</name>
                            <pathurl>file:///Users/duc/Videos/20240718_C0925_copy.MP4</pathurl>
                            <timecode>
                                <string>00:00:00:00</string>
                                <displayformat>NDF</displayformat>
                                <rate>
                                    <timebase>24</timebase>
                                    <ntsc>TRUE</ntsc>
                                </rate>
                            </timecode>
                            <media>
                                <audio>
                                    <channelcount>2</channelcount>
                                </audio>
                            </media>
                        </file>
                        <sourcetrack>
                            <mediatype>audio</mediatype>
                            <trackindex>1</trackindex>
                        </sourcetrack>
                    </clipitem>
                </track>
            </audio>
        </media>
    </sequence>
</xmeml>